<svg width="22" height="22" viewBox="0 0 22 22" fill="none" xmlns="http://www.w3.org/2000/svg">
<path fill-rule="evenodd" clip-rule="evenodd" d="M11 6.74307C10.361 6.74307 9.78562 6.3561 9.54463 5.76425C9.54536 5.76603 9.54488 5.76516 9.54303 5.76179C9.5318 5.74135 9.47008 5.62902 9.31933 5.45713C9.15706 5.2721 8.93147 5.06425 8.6505 4.87763C8.09607 4.50939 7.36234 4.24425 6.46219 4.34197C5.14658 4.48479 4.33585 5.10763 3.83341 5.86615C3.29862 6.67349 3.09401 7.67505 3.15241 8.47413C3.21368 9.31246 3.30974 9.96069 3.75408 10.7953C4.22698 11.6836 5.14444 12.8697 7.03249 14.6085C8.81598 16.251 10.0634 17.3198 10.8581 17.9637C10.9252 18.0181 10.9744 18.0251 11.0001 18.0251C11.0258 18.0251 11.0749 18.0181 11.142 17.9637C11.9367 17.3198 13.1841 16.251 14.9676 14.6085C16.8557 12.8697 17.7731 11.6836 18.246 10.7953C18.6904 9.96069 18.7864 9.31246 18.8477 8.47413C18.9058 7.67841 18.6995 6.67681 18.1621 5.86765C17.6567 5.10645 16.8444 4.48438 15.5372 4.34189C14.7762 4.25893 14.0353 4.50536 13.4119 4.90278C13.1044 5.09879 12.8525 5.31529 12.6729 5.50499C12.5066 5.68051 12.4515 5.78028 12.4497 5.77933C12.4493 5.77912 12.4514 5.77418 12.4554 5.76425C12.2144 6.3561 11.6391 6.74307 11 6.74307ZM9.94203 3.88139C10.5049 4.34509 10.8682 4.84786 11 5.17164C11.1294 4.85396 11.5185 4.3678 12.0929 3.91455C12.9603 3.23021 14.2504 2.62089 15.7075 2.77972C19.3052 3.17189 20.5773 6.3676 20.4149 8.58867C20.278 10.4625 19.928 12.1766 16.0321 15.7644C14.2318 17.4225 12.9586 18.5143 12.1313 19.1846C11.4536 19.7338 10.5466 19.7338 9.86882 19.1846C9.04153 18.5143 7.76836 17.4225 5.96795 15.7644C2.07214 12.1766 1.72211 10.4625 1.58516 8.58867C1.42284 6.3676 2.68011 3.17189 6.2926 2.77972C7.86901 2.60858 9.11887 3.2032 9.94203 3.88139Z" fill="white"/>
</svg>
