<svg width="20" height="20" viewBox="0 0 20 20" fill="none" xmlns="http://www.w3.org/2000/svg">
<path fill-rule="evenodd" clip-rule="evenodd" d="M1.41442 5.41521C-0.420871 6.02932 -0.486878 8.60094 1.3145 9.30838L7.87927 11.8865C7.98651 11.9286 8.07137 12.0135 8.11349 12.1207L10.6916 18.6855C11.3991 20.4869 13.9707 20.4209 14.5848 18.5856L19.8893 2.73286C20.4318 1.11174 18.8883 -0.43176 17.2671 0.110687L1.41442 5.41521ZM1.92037 7.76564C1.5601 7.62415 1.5733 7.10983 1.94036 6.987L16.5401 2.10176L8.35081 10.291L1.92037 7.76564ZM9.60029 11.3855C9.62034 11.4278 9.639 11.471 9.65623 11.5149L12.2344 18.0796C12.3758 18.4399 12.8902 18.4267 13.013 18.0596L18.0855 2.90031L9.60029 11.3855Z" fill="white"/>
</svg>
