<svg width="20" height="20" viewBox="0 0 20 20" fill="none" xmlns="http://www.w3.org/2000/svg">
<path fill-rule="evenodd" clip-rule="evenodd" d="M8.75984 0.559247C9.47514 -0.186415 10.683 -0.186416 11.3983 0.559247L19.5076 9.01269C19.8239 9.3424 20 9.77811 20 10.2309V18.2226C20 19.2042 19.1889 20 18.1884 20H13.6736C12.6731 20 11.862 19.2042 11.862 18.2226V13.8417L11.8619 13.8392C11.8616 13.8322 11.861 13.8177 11.8593 13.7966C11.856 13.7542 11.8489 13.6873 11.8339 13.6045C11.8032 13.435 11.7434 13.2211 11.6324 13.0171C11.524 12.8176 11.3723 12.6366 11.1534 12.5023C10.9374 12.3699 10.6043 12.251 10.0791 12.251C8.78724 12.251 8.35694 12.7269 8.17912 13.0358C8.07054 13.2245 8.01835 13.4214 7.99503 13.5777C7.98363 13.6541 7.97996 13.7152 7.97893 13.753C7.97843 13.7712 7.97855 13.7834 7.97866 13.7886L7.97987 13.8075V18.2226C7.97987 19.2042 7.16877 20 6.16822 20H1.81165C0.811101 20 0 19.2042 0 18.2226V10.3958C0 9.94298 0.176116 9.50727 0.492405 9.17756L8.75984 0.559247ZM12.7678 13.8354H13.6736V18.2226H18.1884V10.2309L10.0791 1.77744L1.81165 10.3958L1.81165 18.2226L6.16822 18.2226V13.8544C6.16792 13.8461 6.16764 13.8367 6.16742 13.8262C6.16675 13.7949 6.16659 13.7541 6.16793 13.7052C6.17061 13.6077 6.17929 13.4757 6.20249 13.3202C6.24837 13.0128 6.35433 12.5915 6.60162 12.1618C7.13551 11.2342 8.20773 10.4736 10.0791 10.4736C10.8983 10.4736 11.5734 10.6638 12.1136 10.9951C12.6509 11.3245 13.0033 11.7618 13.231 12.1806C13.4561 12.5948 13.5643 12.9992 13.6176 13.2934C13.6446 13.4424 13.6585 13.5688 13.6657 13.6616C13.6694 13.7081 13.6713 13.7467 13.6724 13.776C13.6729 13.7907 13.6732 13.8031 13.6734 13.813L13.6736 13.8261L13.6736 13.8312L13.6736 13.8334L13.6736 13.8344C13.6736 13.8344 13.6736 13.8354 12.7678 13.8354Z" fill="white"/>
</svg>
