<svg width="92" height="26" viewBox="0 0 92 26" fill="none" xmlns="http://www.w3.org/2000/svg">
<path d="M4.73495 0.0911629C2.85194 0.876395 0.781896 3.09477 0.128106 5.87932C-0.699867 9.40744 2.74572 10.8994 3.02832 10.4102C3.36095 9.83539 2.41092 9.64101 2.21536 7.81046C1.96262 5.44614 3.06594 2.80428 4.4545 1.64511C4.71261 1.42975 4.70034 1.7295 4.70034 2.28394C4.70034 3.27542 4.64534 12.176 4.64534 14.0335C4.64534 16.547 4.54114 17.3407 4.35398 18.125C4.16434 18.9198 3.85948 19.4568 4.09049 19.6637C4.34859 19.8951 5.45057 19.3447 6.08853 18.4577C6.85353 17.3938 7.12132 16.1162 7.1694 14.7287C7.22747 13.0561 7.22499 10.4021 7.22747 8.88823C7.22979 7.49981 7.25094 3.43421 7.20304 0.990128C7.19129 0.390644 5.52243 -0.238303 4.73486 0.0904337L4.73495 0.0911629ZM71.6004 11.8541C71.5397 13.1609 71.2493 14.1822 70.889 14.9026C70.1914 16.2973 68.7438 16.7304 68.1292 14.7255C67.7943 13.6326 67.7786 11.8073 68.0194 10.2822C68.2645 8.7286 68.949 7.55524 70.0823 7.66106C71.2002 7.76566 71.7235 9.20073 71.6004 11.8541ZM52.7549 19.9613C52.7397 22.1324 52.3967 24.0361 51.6612 24.589C50.618 25.373 49.2158 24.7849 49.5061 23.2006C49.763 21.7986 50.978 20.3668 52.7579 18.6174C52.7579 18.6174 52.7615 19.0164 52.7549 19.9613ZM52.47 11.8415C52.4062 13.0316 52.0965 14.2273 51.7586 14.9028C51.0611 16.2975 49.6031 16.7335 48.9988 14.7256C48.5857 13.3538 48.6846 11.5782 48.889 10.4595C49.1543 9.00798 49.7972 7.66137 50.952 7.66137C52.0746 7.66137 52.6282 8.88833 52.47 11.8415ZM41.5528 11.8233C41.4843 13.0838 41.2375 14.1375 40.8414 14.9028C40.1247 16.2879 38.7069 16.7272 38.0816 14.7256C37.6309 13.2824 37.7843 11.3145 37.9718 10.2514C38.2501 8.67384 38.9469 7.55539 40.0348 7.66137C41.1522 7.77013 41.6954 9.20073 41.5528 11.8233ZM91.5838 13.2956C91.3107 13.2956 91.186 13.5761 91.0829 14.0483C90.7252 15.69 90.3492 16.0607 89.8643 16.0607C89.3227 16.0607 88.836 15.2478 88.7109 13.6205C88.6125 12.3409 88.6283 9.98514 88.7541 7.64179C88.7798 7.16032 88.6464 6.68394 87.3502 6.21481C86.7924 6.01302 85.9816 5.7159 85.5779 6.68672C84.4373 9.42945 83.991 11.607 83.886 12.4915C83.8805 12.5373 83.8242 12.5467 83.8143 12.4397C83.7474 11.7312 83.5978 10.4438 83.5792 7.73883C83.5756 7.21108 83.4634 6.76185 82.8787 6.39407C82.4993 6.15542 81.3472 5.73334 80.9323 6.23548C80.5729 6.64615 80.1567 7.75132 79.7242 9.06137C79.3727 10.1261 79.1279 10.8464 79.1279 10.8464C79.1279 10.8464 79.1325 7.97348 79.1367 6.88372C79.1385 6.4726 78.8555 6.3356 78.7701 6.31077C78.386 6.19969 77.629 6.01411 77.3077 6.01411C76.9113 6.01411 76.8142 6.23487 76.8142 6.55652C76.8142 6.59863 76.7517 10.339 76.7517 12.9545C76.7517 13.0681 76.7516 13.1921 76.7528 13.3237C76.5335 14.5258 75.8225 16.1576 75.0491 16.1576C74.2749 16.1576 73.9096 15.4754 73.9096 12.3574C73.9096 10.5384 73.9644 9.74746 73.9913 8.43187C74.007 7.6741 74.0372 7.09219 74.0355 6.96014C74.0298 6.55519 73.3269 6.35109 72.9998 6.27566C72.6712 6.19959 72.3857 6.17013 72.1627 6.18278C71.8471 6.20052 71.6238 6.40678 71.6238 6.69048C71.6238 6.84259 71.6256 7.13184 71.6256 7.13184C71.2191 6.49549 70.5653 6.05258 70.1303 5.92423C68.9587 5.57759 67.7362 5.88473 66.814 7.17026C66.0811 8.19167 65.6393 9.34853 65.4654 11.0106C65.3383 12.2257 65.3798 13.4579 65.6057 14.5C65.3327 15.6759 64.8259 16.1576 64.2709 16.1576C63.4652 16.1576 62.8811 14.8475 62.9489 12.5817C62.9937 11.0914 63.293 10.0455 63.6202 8.53244C63.7597 7.88745 63.6464 7.54975 63.3621 7.2261C63.1013 6.92929 62.5457 6.77764 61.747 6.96416C61.178 7.09713 60.3646 7.24013 59.6204 7.34998C59.6204 7.34998 59.6653 7.17149 59.7022 6.85679C59.8957 5.20642 58.0956 5.34032 57.5212 5.86745C57.1784 6.18217 56.945 6.55334 56.8564 7.2207C56.716 8.27976 57.583 8.77928 57.583 8.77928C57.2985 10.0765 56.6012 11.7712 55.8813 12.9964C55.4958 13.6528 55.2008 14.1392 54.82 14.6563C54.8186 14.4637 54.8176 14.2712 54.8169 14.0796C54.8081 11.3523 54.8446 9.20578 54.8607 8.43212C54.8763 7.67437 54.9068 7.10789 54.9051 6.97583C54.9008 6.67964 54.7272 6.56779 54.3661 6.42617C54.0468 6.30091 53.6692 6.21421 53.2776 6.18397C52.7833 6.14556 52.4856 6.40674 52.4933 6.71558C52.4948 6.7739 52.4948 7.13196 52.4948 7.13196C52.0883 6.49559 51.4345 6.05269 50.9996 5.92433C49.8279 5.57785 48.6054 5.885 47.6832 7.17036C46.9505 8.19178 46.4706 9.62509 46.3346 10.9981C46.208 12.2777 46.2314 13.3652 46.404 14.2812C46.2177 15.1985 45.6821 16.1577 45.0765 16.1577C44.3022 16.1577 43.8617 15.4755 43.8617 12.3575C43.8617 10.5385 43.9165 9.74758 43.9434 8.43212C43.9591 7.67437 43.9893 7.09231 43.9876 6.96041C43.9819 6.55545 43.2789 6.35135 42.9519 6.27576C42.6097 6.19693 42.3142 6.16793 42.0874 6.18458C41.788 6.2068 41.5776 6.47385 41.5776 6.67301V7.13196C41.1711 6.49559 40.5173 6.05269 40.0823 5.92433C38.9107 5.57785 37.695 5.88994 36.7661 7.17036C36.1603 8.00527 35.6699 8.93088 35.4174 10.9799C35.3445 11.572 35.3123 12.1265 35.3165 12.6447C35.0749 14.1165 34.008 15.8128 33.1352 15.8128C32.6245 15.8128 32.1381 14.826 32.1381 12.7228C32.1381 9.92128 32.3122 5.93251 32.3416 5.54808C32.3416 5.54808 33.4443 5.52941 33.6579 5.52694C34.2079 5.52092 34.7061 5.53388 35.4387 5.49655C35.8061 5.47788 36.1601 4.16413 35.7809 4.00154C35.609 3.92795 34.3942 3.86347 33.9126 3.85328C33.5077 3.84414 32.3803 3.76103 32.3803 3.76103C32.3803 3.76103 32.4815 1.11347 32.505 0.833785C32.525 0.600683 32.2222 0.480666 32.0486 0.407841C31.6265 0.229974 31.2488 0.144812 30.8012 0.0528697C30.1827 -0.0742412 29.9021 0.0500927 29.8473 0.570132C29.7647 1.35938 29.722 3.67109 29.722 3.67109C29.2681 3.67109 27.7178 3.5827 27.2637 3.5827C26.8419 3.5827 26.3867 5.38996 26.9698 5.41216C27.6408 5.43809 28.8101 5.46045 29.5853 5.48375C29.5853 5.48375 29.5507 9.53823 29.5507 10.79C29.5507 10.9231 29.5519 11.0514 29.5521 11.1758C29.1255 13.3911 27.6228 14.5878 27.6228 14.5878C27.9455 13.1222 27.2863 12.0217 26.0989 11.0901C25.6615 10.7467 24.7979 10.0968 23.8316 9.38461C23.8316 9.38461 24.3912 8.83511 24.8875 7.72962C25.2392 6.94656 25.2544 6.0504 24.3912 5.85279C22.965 5.52605 21.7891 6.56952 21.4384 7.6835C21.1666 8.54647 21.3115 9.18684 21.8439 9.85204C21.8828 9.90065 21.9249 9.95032 21.9684 10.0003C21.6465 10.6185 21.2042 11.4508 20.8296 12.0962C19.79 13.8882 19.0046 15.3056 18.411 15.3056C17.9365 15.3056 17.9429 13.8665 17.9429 12.5192C17.9429 11.3577 18.029 9.61138 18.0978 7.80336C18.1205 7.20542 17.8204 6.86478 17.3173 6.55625C17.0116 6.36882 16.3592 6.00027 15.9814 6.00027C15.4158 6.00027 13.7842 6.07694 12.2425 10.5197C12.0482 11.0797 11.6665 12.1 11.6665 12.1L11.6994 6.75742C11.6994 6.63216 11.6324 6.51105 11.4791 6.42821C11.2193 6.28767 10.5254 6.00027 9.90841 6.00027C9.61444 6.00027 9.46774 6.13649 9.46774 6.408L9.41392 14.7666C9.41392 15.4017 9.43054 16.1426 9.49357 16.4666C9.55637 16.7911 9.6581 17.055 9.7841 17.2121C9.90992 17.3688 10.0555 17.4884 10.2954 17.5377C10.5187 17.5835 11.7417 17.74 11.8052 17.2744C11.8814 16.7164 11.8843 16.1129 12.5264 13.8621C13.5261 10.3579 14.8295 8.64813 15.4423 8.04093C15.5494 7.9348 15.6718 7.92847 15.6659 8.10217C15.6397 8.87044 15.5477 10.7902 15.4858 12.4211C15.3198 16.7857 16.1168 17.5946 17.2557 17.5946C18.1271 17.5946 19.3554 16.7321 20.6721 14.5488C21.493 13.1881 22.29 11.854 22.8626 10.8924C23.2617 11.2605 23.7095 11.6566 24.157 12.0797C25.197 13.063 25.5385 13.9974 25.3119 14.8838C25.1386 15.5615 24.4861 16.2598 23.3247 15.5811C22.9862 15.383 22.8417 15.23 22.5013 15.0068C22.3185 14.8868 22.0393 14.851 21.8719 14.9766C21.437 15.3033 21.1884 15.7187 21.0464 16.233C20.9082 16.7335 21.4113 16.9981 21.9329 17.2295C22.3819 17.4286 23.3471 17.6091 23.9627 17.6296C26.361 17.7095 28.2823 16.476 29.6197 13.2941C29.8591 16.0421 30.878 17.5971 32.6483 17.5971C33.8318 17.5971 35.0185 16.073 35.5374 14.5737C35.6863 15.1849 35.9069 15.7164 36.1916 16.1658C37.5557 18.3189 40.202 17.8555 41.5312 16.0271C41.9422 15.4622 42.0048 15.2592 42.0048 15.2592C42.1986 16.9856 43.5942 17.5888 44.3932 17.5888C45.2881 17.5888 46.2121 17.1673 46.8597 15.7149C46.9356 15.8725 47.0184 16.023 47.1088 16.1657C48.4729 18.3189 51.1192 17.8554 52.4484 16.0271C52.5111 15.9413 52.5655 15.8635 52.613 15.7937L52.6521 16.9277C52.6521 16.9277 51.8937 17.6207 51.4283 18.0458C49.3796 19.9183 47.8218 21.339 47.7072 22.9934C47.5601 25.1028 49.2774 25.8868 50.5766 25.9896C51.9563 26.0987 53.1378 25.3394 53.8641 24.2767C54.5028 23.3414 54.9209 21.3284 54.8903 19.3401C54.878 18.544 54.8579 17.5316 54.8421 16.4465C55.5622 15.6135 56.3734 14.5606 57.1205 13.3281C57.9345 11.985 58.8069 10.1814 59.2537 8.77768C59.2537 8.77768 60.0117 8.78415 60.8206 8.7314C61.0794 8.71458 61.1537 8.76718 61.1059 8.95617C61.0481 9.18448 60.0839 12.8897 60.9639 15.358C61.5662 17.0477 62.9241 17.5913 63.7292 17.5913C64.6716 17.5913 65.5732 16.8823 66.0563 15.8295C66.1145 15.9468 66.1754 16.0604 66.2418 16.1653C67.6059 18.3184 70.2429 17.8522 71.5814 16.0266C71.8835 15.6147 72.055 15.2587 72.055 15.2587C72.3422 17.0454 73.737 17.5974 74.5358 17.5974C75.368 17.5974 76.1578 17.2575 76.7985 15.7471C76.8253 16.4121 76.8674 16.9559 76.934 17.1274C76.9746 17.2322 77.2111 17.3638 77.3831 17.4274C78.1443 17.7086 78.9208 17.5756 79.208 17.5178C79.407 17.4777 79.5622 17.3186 79.5834 16.9079C79.6391 15.8296 79.6049 14.0179 79.933 12.6714C80.4839 10.4117 80.9977 9.53513 81.2414 9.10118C81.3778 8.85805 81.5317 8.81794 81.5373 9.07526C81.5488 9.59591 81.5748 11.1249 81.7882 13.1791C81.9449 14.6899 82.1542 15.5829 82.3151 15.8655C82.7743 16.6738 83.3413 16.712 83.8031 16.712C84.0968 16.712 84.7111 16.6312 84.6562 16.1168C84.6294 15.8661 84.6763 14.3168 85.2194 12.0906C85.574 10.6368 86.1652 9.32315 86.3784 8.84292C86.4571 8.66582 86.4936 8.80543 86.4924 8.83262C86.4475 9.83383 86.3467 13.1086 86.7561 14.8997C87.3111 17.326 88.9166 17.5975 89.4761 17.5975C90.6705 17.5975 91.6473 16.6924 91.9763 14.3109C92.0556 13.7377 91.9382 13.2952 91.5866 13.2952" fill="white"/>
</svg>