<svg width="25" height="25" viewBox="0 0 25 25" fill="none" xmlns="http://www.w3.org/2000/svg">
<path d="M13.2725 7.58015C13.2725 7.08704 12.8728 6.68729 12.3797 6.68729C11.8866 6.68729 11.4868 7.08704 11.4868 7.58015V11.598L7.46898 11.598C6.97587 11.598 6.57612 11.9978 6.57612 12.4909C6.57612 12.984 6.97587 13.3837 7.46898 13.3837L11.4868 13.3837V17.4016C11.4868 17.8947 11.8866 18.2944 12.3797 18.2944C12.8728 18.2944 13.2725 17.8947 13.2725 17.4016V13.3837H17.2904C17.7835 13.3837 18.1833 12.984 18.1833 12.4909C18.1833 11.9978 17.7835 11.598 17.2904 11.598H13.2725V7.58015Z" fill="white"/>
<path fill-rule="evenodd" clip-rule="evenodd" d="M2.67859 8.03573C2.67859 5.07706 5.07706 2.67859 8.03573 2.67859H16.9643C19.923 2.67859 22.3214 5.07706 22.3214 8.03573V16.9643C22.3214 19.923 19.923 22.3214 16.9643 22.3214H8.03573C5.07706 22.3214 2.67859 19.923 2.67859 16.9643V8.03573ZM8.03573 4.4643H16.9643C18.9367 4.4643 20.5357 6.06329 20.5357 8.03573V16.9643C20.5357 18.9367 18.9367 20.5357 16.9643 20.5357H8.03573C6.06329 20.5357 4.4643 18.9367 4.4643 16.9643V8.03573C4.4643 6.06329 6.06329 4.4643 8.03573 4.4643Z" fill="white"/>
</svg>
