<svg width="26" height="26" viewBox="0 0 26 26" fill="none" xmlns="http://www.w3.org/2000/svg">
<path d="M12.1413 11.9719C11.531 11.6384 10.7842 12.0696 10.7678 12.7649L10.6547 17.5676C10.6376 18.2919 11.4198 18.7559 12.0473 18.3936L16.3761 15.8943C17.0036 15.532 16.9929 14.6227 16.3571 14.2753L12.1413 11.9719Z" fill="white"/>
<path fill-rule="evenodd" clip-rule="evenodd" d="M9.28571 2.78571C5.69585 2.78571 2.78571 5.69585 2.78571 9.28571V16.7143C2.78571 20.3041 5.69585 23.2143 9.28571 23.2143H16.7143C20.3041 23.2143 23.2143 20.3041 23.2143 16.7143V9.28571C23.2143 5.69585 20.3041 2.78571 16.7143 2.78571H9.28571ZM16.7143 4.64285H16.0078L16.5584 5.56043L17.7083 7.53175H21.0144C20.3225 5.83707 18.6578 4.64285 16.7143 4.64285ZM10.0738 4.64285H13.8421L14.957 6.50115L15.5582 7.53175H11.7769L10.7217 5.72256L10.0738 4.64285ZM4.98557 7.53175C5.52051 6.2216 6.63679 5.21057 8.01387 4.81921L9.12033 6.6633L9.62692 7.53175H4.98557ZM4.64285 16.7143V9.38889H10.7103L10.7202 9.40602L10.7496 9.38889H21.3571V16.7143C21.3571 19.2785 19.2785 21.3571 16.7143 21.3571H9.28571C6.72153 21.3571 4.64285 19.2785 4.64285 16.7143Z" fill="white"/>
</svg>
