<svg width="24" height="24" viewBox="0 0 24 24" fill="none" xmlns="http://www.w3.org/2000/svg">
<path fill-rule="evenodd" clip-rule="evenodd" d="M15.4678 16.6799C14.0162 17.8637 12.163 18.5735 10.1439 18.5735C5.48836 18.5735 1.71429 14.7995 1.71429 10.1439C1.71429 5.48836 5.48836 1.71429 10.1439 1.71429C14.7995 1.71429 18.5735 5.48836 18.5735 10.1439C18.5735 12.163 17.8637 14.0162 16.6799 15.4678L21.2087 19.9965C21.5434 20.3312 21.5434 20.8739 21.2087 21.2087C20.8739 21.5434 20.3312 21.5434 19.9965 21.2087L15.4678 16.6799ZM16.8593 10.1439C16.8593 13.8527 13.8527 16.8593 10.1439 16.8593C6.43514 16.8593 3.42858 13.8527 3.42858 10.1439C3.42858 6.43514 6.43514 3.42858 10.1439 3.42858C13.8527 3.42858 16.8593 6.43514 16.8593 10.1439Z" fill="white"/>
</svg>
