<svg width="22" height="22" viewBox="0 0 22 22" fill="none" xmlns="http://www.w3.org/2000/svg">
<path d="M4.71431 12.5714C5.58219 12.5714 6.28574 11.8679 6.28574 11C6.28574 10.1321 5.58219 9.42859 4.71431 9.42859C3.84644 9.42859 3.14288 10.1321 3.14288 11C3.14288 11.8679 3.84644 12.5714 4.71431 12.5714Z" fill="white"/>
<path d="M12.5715 11C12.5715 11.8679 11.8679 12.5714 11 12.5714C10.1322 12.5714 9.4286 11.8679 9.4286 11C9.4286 10.1321 10.1322 9.42859 11 9.42859C11.8679 9.42859 12.5715 10.1321 12.5715 11Z" fill="white"/>
<path d="M18.8572 11C18.8572 11.8679 18.1536 12.5714 17.2857 12.5714C16.4179 12.5714 15.7143 11.8679 15.7143 11C15.7143 10.1321 16.4179 9.42859 17.2857 9.42859C18.1536 9.42859 18.8572 10.1321 18.8572 11Z" fill="white"/>
</svg>